<svg preserveAspectRatio="none" overflow="visible" style="display: block;" width="40" height="35" viewBox="0 0 40 35" fill="none" xmlns="http://www.w3.org/2000/svg">
<g id="calendar-check-01">
<g id="Icon">
<path d="M5 12.8333C5 10.3831 5 9.15799 5.54497 8.22212C6.02433 7.39892 6.78924 6.72963 7.73005 6.31018C8.79961 5.83333 10.1997 5.83333 13 5.83333H27C29.8003 5.83333 31.2004 5.83333 32.27 6.31018C33.2108 6.72963 33.9757 7.39892 34.455 8.22212C35 9.15799 35 10.3831 35 12.8333V25.0833C35 27.5336 35 28.7587 34.455 29.6945C33.9757 30.5177 33.2108 31.187 32.27 31.6065C31.2004 32.0833 29.8003 32.0833 27 32.0833H13C10.1997 32.0833 8.79961 32.0833 7.73005 31.6065C6.78924 31.187 6.02433 30.5177 5.54497 29.6945C5 28.7587 5 27.5336 5 25.0833V12.8333Z" fill="white"/>
<path d="M35 14.5833H5M26.6667 2.91667V8.75M13.3333 2.91667V8.75M15 23.3333L18.3333 26.25L25.8333 19.6875M13 32.0833H27C29.8003 32.0833 31.2004 32.0833 32.27 31.6065C33.2108 31.187 33.9757 30.5177 34.455 29.6945C35 28.7587 35 27.5336 35 25.0833V12.8333C35 10.3831 35 9.15799 34.455 8.22212C33.9757 7.39892 33.2108 6.72963 32.27 6.31018C31.2004 5.83333 29.8003 5.83333 27 5.83333H13C10.1997 5.83333 8.79961 5.83333 7.73005 6.31018C6.78924 6.72963 6.02433 7.39892 5.54497 8.22212C5 9.15799 5 10.3831 5 12.8333V25.0833C5 27.5336 5 28.7587 5.54497 29.6945C6.02433 30.5177 6.78924 31.187 7.73005 31.6065C8.79961 32.0833 10.1997 32.0833 13 32.0833Z" stroke="black" stroke-width="2" stroke-linecap="round" stroke-linejoin="round"/>
</g>
</g>
</svg>
